<?xml version="1.0" standalone="no"?>
<!DOCTYPE svg PUBLIC "-//W3C//DTD SVG 20010904//EN"
 "http://www.w3.org/TR/2001/REC-SVG-20010904/DTD/svg10.dtd">
<svg version="1.0" xmlns="http://www.w3.org/2000/svg"
 width="394.000000pt" height="357.000000pt" viewBox="0 0 394.000000 357.000000"
 preserveAspectRatio="xMidYMid meet">

<g transform="translate(0.000000,357.000000) scale(0.100000,-0.100000)"
fill="#000000" stroke="none">
<path d="M1970 3469 c-626 -63 -1159 -417 -1372 -911 -62 -144 -89 -269 -95
-438 -6 -162 8 -268 53 -411 50 -161 198 -418 232 -404 9 3 29 9 45 12 15 3
29 9 32 13 3 4 -21 45 -52 91 -193 288 -253 611 -172 934 l21 84 67 25 c103
38 162 55 211 62 44 5 45 5 65 -32 71 -136 276 -118 372 31 73 113 132 160
264 208 174 64 289 203 257 310 -17 56 -107 135 -222 193 -53 27 -96 52 -96
55 0 4 36 16 80 28 368 100 776 83 1113 -45 37 -14 67 -27 67 -28 0 -2 -43
-46 -95 -99 -132 -134 -172 -226 -130 -306 31 -62 115 -75 257 -41 108 26 130
25 218 -6 89 -31 128 -28 239 19 l73 31 20 -25 c76 -95 189 -291 175 -305 -3
-3 -36 3 -73 15 -125 39 -246 24 -374 -45 -50 -27 -50 -27 -92 -9 -166 68
-198 57 -269 -93 -24 -50 -33 -85 -37 -139 -6 -87 6 -120 59 -168 32 -29 39
-42 39 -73 0 -106 139 -184 263 -148 30 9 57 16 60 16 2 0 6 -40 9 -89 5 -112
32 -170 154 -331 115 -153 109 -148 133 -126 10 9 41 25 67 35 45 17 53 26 96
102 111 192 158 354 165 569 10 271 -59 510 -211 738 -320 480 -977 765 -1616
701z"/>
<path d="M1375 2336 c-38 -12 -85 -31 -104 -40 -54 -28 -130 -106 -159 -161
-23 -43 -27 -62 -27 -140 0 -76 4 -98 25 -140 47 -97 144 -172 269 -209 113
-33 142 -78 148 -231 6 -150 -1 -139 100 -165 49 -12 133 -24 188 -27 l100 -6
50 63 c99 123 133 178 145 233 11 47 20 61 69 103 113 97 158 173 132 223 -18
34 -52 50 -125 60 -38 6 -73 14 -79 20 -5 5 -12 33 -15 60 -7 75 -54 148 -121
188 -49 29 -95 43 -192 58 -20 3 -62 22 -95 42 -163 101 -192 107 -309 69z"/>
<path d="M941 1259 c-60 -12 -167 -47 -216 -72 -64 -31 -154 -97 -290 -212
-70 -59 -166 -132 -214 -163 -47 -30 -88 -56 -89 -58 -2 -1 51 -83 118 -181
67 -98 152 -222 188 -276 55 -82 70 -98 87 -93 11 3 63 17 115 31 202 55 403
49 795 -23 594 -110 691 -108 998 17 345 140 618 275 796 391 150 99 461 322
487 351 14 16 19 36 19 78 0 48 -5 64 -28 94 -42 55 -72 71 -131 70 -62 -1
-136 -32 -237 -100 -117 -79 -261 -161 -358 -204 -91 -40 -223 -79 -269 -79
-13 0 -51 -18 -83 -39 -84 -56 -127 -63 -373 -55 -324 10 -567 -19 -734 -88
-76 -31 -114 -32 -126 -2 -14 36 48 72 186 109 176 47 281 58 548 54 381 -4
381 -4 424 16 48 23 76 67 76 120 0 68 -49 121 -143 157 -46 18 -90 21 -372
29 -383 11 -426 16 -620 69 -82 23 -183 48 -223 56 -80 15 -261 17 -331 3z"/>
</g>
</svg>
