<?xml version="1.0" standalone="no"?>
<!DOCTYPE svg PUBLIC "-//W3C//DTD SVG 20010904//EN"
 "http://www.w3.org/TR/2001/REC-SVG-20010904/DTD/svg10.dtd">
<svg version="1.0" xmlns="http://www.w3.org/2000/svg"
 width="394.000000pt" height="357.000000pt" viewBox="0 0 394.000000 357.000000"
 preserveAspectRatio="xMidYMid meet">

<g transform="translate(0.000000,357.000000) scale(0.100000,-0.100000)"
fill="#000000" stroke="none">
<path d="M1768 3469 c-335 -29 -670 -152 -950 -349 -104 -73 -312 -273 -379
-365 -114 -157 -205 -329 -252 -480 -56 -179 -70 -277 -70 -475 0 -155 3 -202
22 -290 33 -151 66 -250 125 -375 235 -495 726 -863 1301 -975 888 -172 1777
262 2111 1031 85 196 124 390 124 609 0 223 -40 414 -124 609 -239 550 -769
943 -1408 1045 -113 18 -376 26 -500 15z m505 -223 c375 -76 665 -229 902
-477 200 -208 328 -453 381 -724 24 -124 24 -368 0 -490 -54 -276 -182 -517
-385 -729 -241 -250 -553 -410 -931 -478 -113 -20 -479 -17 -597 5 -572 107
-1041 482 -1221 977 -65 177 -76 245 -77 465 0 213 8 272 62 435 131 401 475
751 900 918 169 66 245 85 468 116 71 10 423 -3 498 -18z"/>
<path d="M760 1730 l0 -820 1195 0 1195 0 0 820 0 820 -1195 0 -1195 0 0 -820z
m2110 665 c0 -3 -19 -22 -42 -43 -331 -301 -421 -384 -468 -427 -333 -313
-367 -338 -436 -321 -14 4 -85 62 -158 129 -73 67 -261 241 -419 386 -158 145
-287 267 -287 272 0 4 407 8 905 8 498 0 905 -2 905 -4z m-1597 -429 c136
-125 247 -231 247 -235 0 -4 -48 -52 -107 -107 -113 -103 -368 -340 -440 -408
l-43 -40 0 554 0 554 48 -45 c26 -25 158 -148 295 -273z m1707 -248 l0 -542
-27 25 c-16 14 -93 85 -173 160 -80 74 -200 185 -268 248 -67 63 -121 117
-120 121 5 11 572 530 581 530 4 0 7 -244 7 -542z m-1248 -176 c87 -80 176
-109 278 -90 72 13 102 30 181 100 36 32 70 58 75 58 5 0 74 -62 154 -136 80
-75 209 -195 288 -267 78 -72 142 -135 142 -139 0 -5 -405 -8 -900 -8 -495 0
-900 2 -900 4 0 2 82 80 182 172 101 93 234 217 297 276 97 92 117 106 130 96
9 -7 42 -36 73 -66z"/>
</g>
</svg>
