<?xml version="1.0" standalone="no"?>
<!DOCTYPE svg PUBLIC "-//W3C//DTD SVG 20010904//EN"
 "http://www.w3.org/TR/2001/REC-SVG-20010904/DTD/svg10.dtd">
<svg version="1.0" xmlns="http://www.w3.org/2000/svg"
 width="184.000000pt" height="180.000000pt" viewBox="0 0 184.000000 180.000000"
 preserveAspectRatio="xMidYMid meet">

<g transform="translate(0.000000,180.000000) scale(0.100000,-0.100000)"
fill="#000000" stroke="none">
<path d="M795 1705 c-33 -17 -75 -63 -75 -82 0 -10 -61 -13 -270 -13 l-270 0
0 -519 0 -519 -58 -59 c-38 -38 -62 -72 -70 -99 -36 -123 13 -245 120 -298
l52 -26 689 0 c488 0 701 3 728 11 87 27 159 127 159 224 0 149 -88 243 -235
253 l-74 5 1 86 0 86 -136 3 -136 3 0 -91 0 -90 -115 0 -115 0 0 90 0 90 -135
0 -135 0 0 -90 0 -90 -120 0 -120 0 0 465 0 465 119 0 c110 0 120 -2 126 -20
3 -11 24 -35 46 -53 37 -32 39 -37 39 -91 0 -49 -3 -59 -20 -63 -18 -5 -20
-14 -20 -78 l0 -74 -80 -56 c-45 -32 -80 -60 -78 -64 11 -24 95 -141 101 -141
14 0 67 41 67 52 0 5 -9 23 -20 38 l-20 28 47 34 c27 19 53 37 59 41 6 4 37
-12 68 -34 l56 -40 -20 -29 c-11 -15 -20 -33 -20 -38 0 -12 53 -52 68 -52 8 0
85 110 100 142 2 3 -30 30 -71 58 -70 49 -75 54 -81 97 -3 25 -6 60 -6 78 0
24 -5 34 -20 38 -17 4 -20 14 -20 64 0 54 2 61 31 82 66 49 88 134 53 207 -33
69 -125 103 -189 69z m95 -105 c11 -11 20 -28 20 -37 0 -23 -30 -53 -53 -53
-26 0 -57 28 -57 52 0 22 34 58 55 58 8 0 24 -9 35 -20z m-510 -555 l0 -465
-55 0 -55 0 0 465 0 465 55 0 55 0 0 -465z m520 -425 l0 -40 -45 0 -45 0 0 40
0 40 45 0 45 0 0 -40z m500 0 l0 -40 -45 0 -45 0 0 40 0 40 45 0 45 0 0 -40z
m230 -158 c74 -36 98 -144 49 -214 -43 -60 -15 -58 -756 -58 -626 0 -681 1
-713 18 -97 48 -95 207 3 256 28 14 109 16 707 16 623 0 678 -1 710 -18z"/>
<path d="M290 330 l0 -51 78 3 77 3 3 48 3 47 -80 0 -81 0 0 -50z"/>
<path d="M652 333 l3 -48 80 0 80 0 3 48 3 47 -86 0 -86 0 3 -47z"/>
<path d="M1022 333 l3 -48 80 0 80 0 3 48 3 47 -86 0 -86 0 3 -47z"/>
<path d="M1390 335 l0 -45 80 0 80 0 0 45 0 45 -80 0 -80 0 0 -45z"/>
</g>
</svg>
