<?xml version="1.0" standalone="no"?>
<!DOCTYPE svg PUBLIC "-//W3C//DTD SVG 20010904//EN"
 "http://www.w3.org/TR/2001/REC-SVG-20010904/DTD/svg10.dtd">
<svg version="1.0" xmlns="http://www.w3.org/2000/svg"
 width="184.000000pt" height="180.000000pt" viewBox="0 0 184.000000 180.000000"
 preserveAspectRatio="xMidYMid meet">

<g transform="translate(0.000000,180.000000) scale(0.100000,-0.100000)"
fill="#000000" stroke="none">
<path d="M860 1579 l0 -150 -27 3 -28 3 -3 132 -3 131 -30 -8 c-105 -30 -177
-140 -196 -298 l-6 -54 57 3 c55 4 56 4 56 -23 l0 -27 -87 -3 c-88 -3 -88 -3
-91 -30 l-3 -28 420 -2 421 -3 0 33 0 33 -297 -1 -298 -1 -3 25 -3 26 268 2
268 3 -4 44 c-10 148 -99 282 -196 298 l-35 6 0 -132 0 -132 -27 3 -28 3 -3
148 -3 147 -59 0 -60 0 0 -151z"/>
<path d="M800 990 c0 -85 -1 -91 -22 -99 -24 -9 -162 -64 -211 -84 -25 -11
-31 -8 -90 50 l-62 61 -82 -77 c-46 -43 -83 -82 -83 -87 0 -5 28 -36 62 -71
l61 -62 -30 -58 c-17 -32 -39 -83 -49 -113 -9 -30 -21 -61 -27 -67 -6 -9 -39
-13 -98 -13 l-89 0 0 -115 0 -115 188 0 189 0 -10 56 c-6 40 -6 78 2 127 33
199 182 351 385 394 116 24 255 -4 356 -72 l50 -33 21 29 c27 39 69 39 101 1
12 -16 95 -135 183 -265 143 -212 163 -237 188 -237 l27 0 0 115 0 114 -92 3
-92 3 -26 75 c-14 41 -38 97 -53 123 l-28 48 65 67 65 68 -82 82 -82 82 -67
-60 c-36 -33 -72 -60 -80 -60 -7 0 -28 9 -46 20 -19 12 -68 32 -110 46 -42 15
-80 31 -84 38 -4 6 -8 48 -8 94 l0 82 -120 0 -120 0 0 -90z"/>
<path d="M1288 573 c-20 -23 -291 -421 -305 -448 -23 -45 -20 -45 328 -45 291
0 330 2 336 16 7 18 -306 487 -329 492 -8 1 -21 -5 -30 -15z m50 -207 c3 -128
-5 -154 -39 -135 -17 9 -19 22 -19 122 0 115 8 141 40 135 12 -3 16 -25 18
-122z m-10 -205 c21 -13 10 -46 -16 -49 -27 -4 -40 22 -22 43 14 17 20 18 38
6z"/>
</g>
</svg>
