<?xml version="1.0" standalone="no"?>
<!DOCTYPE svg PUBLIC "-//W3C//DTD SVG 20010904//EN"
 "http://www.w3.org/TR/2001/REC-SVG-20010904/DTD/svg10.dtd">
<svg version="1.0" xmlns="http://www.w3.org/2000/svg"
 width="394.000000pt" height="357.000000pt" viewBox="0 0 394.000000 357.000000"
 preserveAspectRatio="xMidYMid meet">

<g transform="translate(0.000000,357.000000) scale(0.100000,-0.100000)"
fill="#000000" stroke="none">
<path d="M1679 3438 c-52 -28 -71 -45 -110 -103 l-48 -70 -558 -5 -558 -5 -3
-1083 -2 -1082 -53 -34 c-28 -18 -73 -56 -99 -84 -57 -61 -74 -97 -127 -263
-25 -81 -8 -195 48 -315 57 -122 194 -230 322 -254 77 -15 2862 -13 2931 1
167 35 306 174 359 356 10 38 19 93 19 124 0 65 -27 173 -61 244 -29 61 -138
172 -199 202 -85 42 -105 46 -245 52 l-140 6 -3 188 -2 187 -285 0 -285 0 0
-185 0 -185 -237 2 -238 3 -3 183 -2 182 -285 0 -285 0 0 -184 c0 -113 -4
-186 -10 -188 -5 -1 -119 -1 -252 2 l-243 5 0 960 0 960 250 0 250 0 23 -45
c31 -59 55 -84 122 -129 l55 -37 3 -114 c4 -156 2 -160 -53 -160 l-45 0 0
-154 0 -154 -28 -24 c-16 -12 -88 -63 -160 -113 -73 -49 -130 -95 -128 -101 9
-25 198 -294 206 -294 13 0 130 90 136 104 3 8 -13 41 -35 74 -23 33 -41 64
-41 70 0 7 12 19 28 29 15 10 64 44 110 75 45 32 89 58 98 58 8 0 27 -8 42
-17 24 -16 190 -131 201 -140 3 -2 -17 -35 -44 -74 -27 -40 -44 -74 -39 -79 5
-4 39 -31 76 -58 l67 -51 49 72 c26 40 72 107 100 149 29 42 52 80 52 85 0 5
-70 58 -155 118 -94 66 -158 117 -160 130 -3 11 -6 81 -8 155 l-2 135 -40 5
-40 5 -3 120 c-1 66 -1 129 2 140 3 11 20 29 38 39 53 30 108 87 136 141 22
43 26 63 27 140 0 79 -4 97 -28 147 -54 111 -145 167 -269 168 -67 0 -84 -4
-139 -32z m202 -179 c43 -30 63 -84 50 -131 -33 -110 -186 -119 -221 -12 -17
52 -5 97 36 133 42 37 92 41 135 10z m-1051 -1164 l0 -965 -120 0 -120 0 0
965 0 965 120 0 120 0 0 -965z m1075 -879 l0 -89 -90 0 -90 0 -3 78 c-2 43 -1
84 2 92 4 11 26 13 93 11 l88 -3 0 -89z m1050 0 l0 -89 -85 1 c-47 1 -88 1
-92 2 -10 0 -10 164 -1 174 4 4 46 5 93 4 l85 -3 0 -89z m485 -318 c64 -32 97
-64 134 -132 79 -143 16 -341 -131 -413 l-58 -28 -1430 0 -1430 0 -60 30 c-67
34 -125 101 -150 174 -57 168 53 362 222 391 27 4 678 7 1448 6 l1400 -1 55
-27z"/>
<path d="M632 628 l3 -93 163 -3 162 -2 0 95 0 95 -165 0 -166 0 3 -92z"/>
<path d="M1410 625 l0 -95 160 0 160 0 0 95 0 95 -160 0 -160 0 0 -95z"/>
<path d="M2180 625 l0 -95 159 0 160 0 3 91 c2 50 1 93 -1 95 -2 2 -76 4 -163
4 l-158 0 0 -95z"/>
<path d="M2950 625 l0 -95 160 0 160 0 0 95 0 95 -160 0 -160 0 0 -95z"/>
</g>
</svg>
