<?xml version="1.0" standalone="no"?>
<!DOCTYPE svg PUBLIC "-//W3C//DTD SVG 20010904//EN"
 "http://www.w3.org/TR/2001/REC-SVG-20010904/DTD/svg10.dtd">
<svg version="1.0" xmlns="http://www.w3.org/2000/svg"
 width="394.000000pt" height="357.000000pt" viewBox="0 0 394.000000 357.000000"
 preserveAspectRatio="xMidYMid meet">

<g transform="translate(0.000000,357.000000) scale(0.100000,-0.100000)"
fill="#000000" stroke="none">
<path d="M1741 3469 c-416 -44 -825 -231 -1116 -511 -232 -223 -392 -488 -465
-773 -214 -825 287 -1669 1163 -1960 725 -241 1518 -57 2027 472 252 261 399
559 445 903 33 242 4 507 -81 735 -46 123 -143 299 -224 407 -389 518 -1064
798 -1749 727z m446 -214 c663 -87 1200 -534 1349 -1124 117 -461 -17 -946
-360 -1299 -361 -374 -905 -557 -1443 -487 -324 43 -618 168 -858 366 -710
584 -710 1594 0 2178 355 293 839 427 1312 366z"/>
<path d="M1096 2625 c-58 -31 -55 14 -56 -826 0 -773 0 -775 21 -798 11 -12
32 -26 46 -32 33 -12 1673 -12 1706 0 14 6 35 20 46 32 21 23 21 25 21 799 0
774 0 776 -21 799 -11 12 -32 26 -46 32 -14 5 -362 9 -856 9 -724 0 -836 -2
-861 -15z m454 -217 c64 -33 93 -80 88 -144 -5 -60 -28 -94 -83 -125 -73 -42
-180 -21 -228 43 -42 56 -37 145 11 191 64 61 137 73 212 35z m60 -793 l0
-396 -142 3 -143 3 -3 393 -2 392 145 0 145 0 0 -395z m410 323 c1 -69 1 -71
14 -43 17 39 41 59 101 87 70 32 229 33 296 2 63 -29 114 -77 141 -132 22 -46
23 -54 23 -337 l0 -290 -142 -3 -143 -3 0 266 c0 164 -4 274 -10 286 -13 24
-54 45 -106 53 -58 10 -106 -12 -141 -65 l-28 -42 -3 -249 -3 -248 -145 0
-144 0 0 395 0 395 145 0 145 0 0 -72z"/>
</g>
</svg>
