<?xml version="1.0" standalone="no"?>
<!DOCTYPE svg PUBLIC "-//W3C//DTD SVG 20010904//EN"
 "http://www.w3.org/TR/2001/REC-SVG-20010904/DTD/svg10.dtd">
<svg version="1.0" xmlns="http://www.w3.org/2000/svg"
 width="394.000000pt" height="357.000000pt" viewBox="0 0 394.000000 357.000000"
 preserveAspectRatio="xMidYMid meet">

<g transform="translate(0.000000,357.000000) scale(0.100000,-0.100000)"
fill="#000000" stroke="none">
<path d="M1856 3453 c-3 -10 -6 -136 -8 -280 -1 -145 -6 -263 -10 -263 -4 0
-8 4 -8 9 0 5 -9 73 -21 152 -20 135 -56 270 -79 293 -16 16 -89 -25 -158 -89
-85 -78 -131 -172 -139 -279 l-6 -78 -43 -18 c-48 -21 -62 -41 -70 -103 l-6
-45 608 -4 c335 -3 613 -1 618 3 5 4 1 33 -10 66 -16 49 -25 61 -60 80 -40 22
-41 24 -52 100 -16 104 -73 221 -143 290 -55 55 -130 99 -153 90 -17 -7 -46
-131 -77 -324 -13 -79 -27 -143 -31 -143 -4 0 -8 117 -8 261 0 160 -4 268 -10
280 -15 27 -126 28 -134 2z"/>
<path d="M729 2748 c-1 -2 -7 -40 -13 -86 l-11 -83 -66 -28 -66 -28 -64 49
c-35 26 -69 48 -74 48 -6 0 -52 -42 -104 -94 l-93 -94 52 -66 52 -66 -23 -58
c-13 -31 -27 -61 -31 -67 -5 -5 -43 -14 -86 -20 l-77 -10 -3 -141 -3 -142 58
-6 c119 -14 105 -3 159 -132 3 -6 -18 -39 -45 -72 -28 -34 -51 -65 -51 -69 0
-11 183 -193 194 -193 5 0 37 22 72 50 l63 49 65 -29 64 -29 7 -68 c11 -113
-3 -104 153 -101 l136 3 7 40 c4 22 10 60 14 85 6 45 6 45 71 72 l66 27 63
-50 c34 -27 68 -49 74 -49 6 0 13 11 17 25 6 25 -11 281 -25 368 -6 33 -5 50
3 53 6 2 79 26 161 52 l150 49 2 79 c2 70 0 82 -20 107 -19 23 -34 29 -81 34
-63 6 -61 5 -93 83 l-23 55 27 38 c14 21 30 40 35 43 4 3 8 23 8 44 0 36 -7
46 -81 117 -44 43 -85 78 -90 78 -5 0 -36 -21 -68 -47 l-59 -48 -53 22 c-30
12 -59 25 -66 30 -6 5 -15 39 -19 76 -11 106 -4 102 -154 102 -72 0 -131 -1
-131 -2z m224 -474 c198 -67 253 -337 97 -478 -68 -61 -119 -79 -209 -74 -93
5 -154 37 -210 108 -175 222 52 536 322 444z"/>
<path d="M1536 2708 c-31 -169 -32 -226 -5 -330 52 -207 186 -351 350 -377
200 -33 393 124 455 369 15 61 15 145 0 283 -2 15 -4 38 -5 52 l-1 25 -395 0
-395 0 -4 -22z m772 -71 c8 -15 16 -60 19 -100 5 -65 2 -77 -22 -119 -41 -73
-61 -84 -161 -92 -101 -7 -114 -2 -165 69 -18 25 -38 45 -45 45 -7 0 -28 -23
-48 -50 -20 -28 -47 -55 -60 -59 -33 -13 -187 -1 -214 16 -12 7 -36 32 -52 55
-33 45 -39 102 -19 188 19 85 -4 81 398 78 l356 -3 13 -28z"/>
<path d="M3077 2678 c-13 -18 -49 -78 -79 -133 -31 -55 -132 -238 -227 -407
l-171 -307 -15 -98 c-12 -83 -19 -184 -16 -230 1 -14 390 -16 930 -4 246 5
285 8 294 22 11 17 -6 51 -213 419 -85 152 -230 411 -338 605 -97 174 -120
193 -165 133z m125 -189 c30 -35 32 -87 14 -314 -20 -258 -30 -290 -86 -290
-31 0 -36 4 -47 36 -6 20 -18 141 -27 269 -15 221 -15 236 2 269 9 20 28 42
42 49 32 16 80 8 102 -19z m6 -754 c43 -50 22 -123 -42 -145 -61 -20 -120 23
-120 87 0 28 7 42 33 65 28 25 39 29 70 24 21 -3 45 -16 59 -31z"/>
<path d="M1467 1828 l-119 -40 6 -37 c3 -20 9 -115 12 -212 8 -220 -6 -319
-81 -546 l-53 -163 327 0 326 0 -2 170 c-1 165 -2 170 -27 203 -39 51 -79 147
-136 327 -96 307 -106 335 -121 337 -8 1 -67 -17 -132 -39z"/>
<path d="M2245 1803 c-106 -383 -179 -572 -239 -622 -14 -11 -16 -38 -16 -182
l0 -169 326 0 c305 0 325 1 320 18 -119 395 -136 473 -136 652 0 58 5 145 11
193 6 49 9 91 6 93 -6 7 -228 73 -244 74 -7 0 -20 -26 -28 -57z m176 -350 c23
-15 37 -29 31 -31 -6 -2 -24 6 -40 18 -25 18 -33 20 -51 10 -12 -6 -27 -9 -34
-7 -9 3 34 34 51 37 1 0 21 -12 43 -27z m-41 -32 c0 -5 -20 -25 -45 -45 -38
-32 -47 -35 -64 -24 -17 10 -26 7 -67 -25 -46 -36 -64 -45 -64 -29 1 6 72 64
107 85 7 4 21 2 33 -5 17 -11 24 -9 52 20 33 32 48 40 48 23z"/>
<path d="M1735 1739 c14 -68 68 -226 102 -304 35 -78 92 -175 103 -175 24 0
134 255 180 415 28 97 27 99 -22 74 -65 -33 -187 -38 -274 -10 -38 12 -75 25
-83 28 -10 4 -12 -2 -6 -28z"/>
<path d="M1230 525 l0 -105 325 0 325 0 0 89 c0 49 3 96 6 105 6 14 -27 16
-325 16 l-331 0 0 -105z"/>
<path d="M1992 528 l3 -103 328 -3 327 -2 0 105 0 105 -330 0 -331 0 3 -102z"/>
<path d="M1240 222 c0 -10 45 -52 80 -75 21 -15 59 -17 275 -17 277 0 281 1
287 60 l3 35 -322 3 c-178 1 -323 -1 -323 -6z"/>
<path d="M1995 220 c-7 -11 4 -60 18 -77 7 -10 75 -13 277 -13 l268 0 36 42
c20 23 36 45 36 50 0 12 -627 10 -635 -2z"/>
</g>
</svg>
