<?xml version="1.0" standalone="no"?>
<!DOCTYPE svg PUBLIC "-//W3C//DTD SVG 20010904//EN"
 "http://www.w3.org/TR/2001/REC-SVG-20010904/DTD/svg10.dtd">
<svg version="1.0" xmlns="http://www.w3.org/2000/svg"
 width="394.000000pt" height="357.000000pt" viewBox="0 0 394.000000 357.000000"
 preserveAspectRatio="xMidYMid meet">

<g transform="translate(0.000000,357.000000) scale(0.100000,-0.100000)"
fill="#000000" stroke="none">
<path d="M1283 3473 l-232 -3 -29 -38 c-16 -20 -44 -63 -63 -94 -19 -32 -36
-57 -39 -57 -3 -1 -25 29 -49 64 -56 82 -74 99 -99 90 -12 -3 -78 -94 -158
-218 -182 -280 -214 -336 -214 -372 0 -35 24 -75 45 -75 21 0 70 66 209 278
69 105 127 192 130 192 2 0 15 -18 29 -39 l26 -40 -231 -358 c-127 -197 -243
-377 -257 -400 -14 -24 -28 -43 -31 -43 -3 1 -17 18 -31 39 l-27 38 33 67 c37
73 35 104 -7 143 -20 18 -21 17 -57 -24 -51 -57 -105 -165 -98 -195 4 -13 29
-61 56 -106 l50 -83 -31 -52 c-16 -28 -44 -72 -62 -97 l-31 -45 0 -606 0 -607
37 -53 c21 -30 81 -112 135 -184 l98 -130 206 -3 206 -2 12 -53 c25 -114 86
-212 160 -255 143 -84 309 36 353 256 l11 52 72 0 72 0 17 -62 c57 -205 172
-304 310 -264 95 28 168 128 207 281 l11 45 127 1 c265 2 441 13 451 29 15 23
12 94 -4 116 -13 18 -33 19 -291 25 -152 4 -278 9 -281 12 -6 6 -34 107 -34
125 0 9 86 12 398 12 219 0 401 -2 404 -6 3 -3 -1 -26 -10 -52 -9 -31 -15 -90
-16 -172 -1 -114 2 -132 27 -200 53 -144 140 -225 242 -224 27 0 65 8 82 17
78 41 148 147 174 263 l12 51 218 7 c120 4 231 11 246 15 l28 7 8 195 c4 107
5 439 2 739 l-6 545 -59 150 c-32 83 -111 285 -175 450 -64 165 -122 306 -129
314 -11 10 -95 15 -381 22 -203 5 -370 11 -373 14 -3 3 -7 122 -10 266 l-5
260 -25 17 c-24 15 -78 17 -577 18 -302 0 -654 -1 -782 -3z m1287 -1346 l0
-1183 -716 2 c-529 2 -719 6 -730 15 -12 10 -14 164 -14 1024 0 952 -1 1014
-18 1035 -20 25 -46 19 -65 -14 -9 -16 -13 -259 -15 -1037 l-2 -1016 -53 -7
c-28 -3 -204 -6 -389 -6 l-338 0 0 525 0 524 223 343 c123 189 310 478 417
643 106 165 200 308 208 318 14 16 63 17 754 17 l738 0 0 -1183z m968 191
l162 -423 0 -476 0 -477 -507 5 c-280 3 -509 7 -511 8 -7 6 -6 1762 1 1773 6
9 88 12 350 12 l343 0 162 -422z m-2408 -1537 c108 -77 132 -296 47 -422 -74
-110 -182 -98 -243 27 -51 105 -42 265 20 347 56 74 117 91 176 48z m1935 19
c26 0 82 -60 106 -112 33 -75 33 -211 1 -283 -39 -86 -103 -135 -157 -121 -44
11 -103 73 -125 132 -27 73 -27 184 0 257 28 76 107 145 148 131 8 -2 20 -4
27 -4z m-1236 -35 c75 -68 105 -180 81 -296 -25 -115 -108 -200 -180 -184 -70
15 -121 87 -141 198 -21 111 10 217 82 282 54 49 104 49 158 0z m-1006 8 c2
-5 -5 -41 -15 -80 l-20 -73 -182 0 -181 0 -52 74 c-29 40 -53 76 -53 80 0 9
498 8 503 -1z m689 2 c3 -3 -4 -37 -15 -75 -22 -76 -27 -80 -109 -80 l-47 0
-15 53 c-8 28 -18 64 -22 80 l-6 27 104 0 c58 0 107 -2 110 -5z m2188 -75 l0
-80 -197 2 -197 3 -17 69 c-10 39 -16 74 -13 78 3 4 99 8 215 8 l209 0 0 -80z"/>
<path d="M1800 2887 c-14 -7 -38 -37 -54 -67 -29 -55 -29 -56 -12 -92 24 -49
40 -53 80 -17 34 29 35 30 46 9 14 -26 200 -546 200 -560 0 -6 -17 -7 -45 -3
-58 7 -75 -6 -75 -61 0 -32 6 -48 24 -65 32 -30 174 -91 213 -91 31 0 33 3 47
53 16 55 40 186 51 275 17 131 -70 169 -97 42 -6 -33 -14 -60 -18 -60 -3 0
-50 123 -104 273 -115 317 -126 341 -166 362 -35 18 -57 19 -90 2z"/>
<path d="M1517 2386 c-116 -51 -127 -61 -127 -123 0 -67 32 -85 103 -58 9 4
17 3 17 -3 0 -6 -39 -120 -86 -254 -91 -257 -106 -328 -85 -406 17 -61 57
-103 100 -104 66 -2 86 84 31 137 -16 16 -30 39 -30 52 0 28 161 483 171 483
4 0 10 -20 14 -45 8 -59 46 -105 72 -89 36 22 38 71 9 234 -14 84 -32 164 -39
179 -18 38 -58 37 -150 -3z"/>
<path d="M1841 1756 c-94 -127 -141 -208 -141 -244 0 -63 145 -292 185 -292
53 0 69 72 31 143 -14 26 -26 52 -26 56 0 5 84 11 188 13 126 3 195 8 210 17
71 38 94 240 33 295 -17 15 -20 15 -41 -2 -19 -15 -24 -31 -28 -79 l-4 -61
-46 -6 c-24 -3 -105 -6 -178 -6 -148 0 -149 1 -112 60 27 45 29 111 4 139 -11
12 -23 21 -27 21 -5 0 -26 -24 -48 -54z"/>
<path d="M2816 2508 c-14 -19 -16 -68 -16 -333 0 -290 2 -312 20 -335 19 -25
21 -25 188 -28 l169 -4 5 -164 c6 -212 2 -207 160 -213 135 -4 184 8 195 47 5
15 8 126 8 247 l0 220 -107 279 c-59 153 -113 284 -119 292 -9 11 -59 14 -250
14 -234 0 -238 0 -253 -22z m444 -145 c3 -3 35 -86 71 -186 l67 -182 -67 -8
c-36 -4 -147 -6 -246 -5 l-180 3 -3 185 c-1 101 0 190 2 196 4 10 48 11 178 7
95 -3 175 -8 178 -10z m188 -655 l-3 -103 -77 -3 -78 -3 0 106 0 105 80 0 81
0 -3 -102z"/>
</g>
</svg>
