<?xml version="1.0" standalone="no"?>
<!DOCTYPE svg PUBLIC "-//W3C//DTD SVG 20010904//EN"
 "http://www.w3.org/TR/2001/REC-SVG-20010904/DTD/svg10.dtd">
<svg version="1.0" xmlns="http://www.w3.org/2000/svg"
 width="394.000000pt" height="357.000000pt" viewBox="0 0 394.000000 357.000000"
 preserveAspectRatio="xMidYMid meet">

<g transform="translate(0.000000,357.000000) scale(0.100000,-0.100000)"
fill="#000000" stroke="none">
<path d="M2620 3422 c-67 -9 -78 -15 -96 -58 -28 -66 -9 -159 38 -186 30 -17
976 -16 1021 1 72 28 75 203 4 230 -29 11 -890 22 -967 13z"/>
<path d="M1733 3352 c-87 -70 -140 -144 -172 -244 -17 -53 -40 -49 -76 12 -16
28 -33 50 -37 50 -11 0 -53 -87 -72 -150 -11 -34 -16 -87 -16 -140 2 -160 4
-158 -70 -120 -22 11 -41 20 -44 20 -12 0 -14 -38 -6 -113 12 -104 30 -157 76
-224 22 -32 34 -61 32 -75 -3 -20 -11 -24 -60 -32 -32 -4 -58 -13 -58 -18 0
-6 21 -42 47 -80 49 -75 154 -163 206 -175 40 -8 34 -38 -18 -90 l-46 -45 43
-28 c49 -33 110 -49 183 -50 66 0 125 -10 125 -21 0 -5 -32 -39 -70 -76 -67
-64 -100 -116 -149 -237 -14 -34 -25 -27 -72 45 l-32 50 -20 -33 c-44 -73 -50
-101 -56 -253 l-6 -150 -33 2 c-18 0 -41 8 -51 17 -43 39 -53 13 -40 -99 11
-97 28 -148 77 -222 49 -74 42 -89 -50 -108 -34 -6 -35 -22 -7 -76 31 -62 92
-123 175 -174 41 -26 74 -53 74 -60 0 -8 -18 -29 -40 -46 -22 -18 -40 -40 -40
-49 0 -24 96 -70 171 -80 35 -5 94 -10 132 -10 76 0 81 -7 52 -77 -27 -64 -25
-67 64 -60 96 6 169 37 234 96 53 49 65 42 74 -44 3 -30 9 -58 13 -60 15 -10
101 57 144 112 26 32 59 90 75 128 16 39 36 70 43 70 7 0 28 -23 47 -52 43
-65 49 -61 90 53 28 77 31 96 31 205 0 117 0 119 23 119 12 -1 33 -7 47 -15
14 -8 34 -14 44 -15 17 0 18 6 13 77 -7 99 -37 194 -82 260 -19 29 -35 59 -35
67 0 22 32 36 79 36 54 0 54 19 2 96 -52 78 -98 121 -168 158 -33 18 -59 39
-61 50 -3 11 12 35 38 61 l42 42 -29 20 c-65 47 -98 57 -206 64 -60 4 -111 10
-114 13 -4 3 27 39 68 78 72 70 99 112 143 221 9 22 21 37 28 35 7 -2 27 -25
43 -51 17 -25 35 -46 41 -46 12 -1 56 92 73 154 6 22 11 93 11 158 0 132 1
132 70 97 22 -11 44 -20 50 -20 15 0 12 93 -5 174 -12 59 -46 134 -96 214 -18
28 -5 40 54 51 27 5 51 12 55 15 11 12 -41 98 -96 157 -30 33 -77 69 -110 86
-32 16 -59 37 -60 47 -3 11 13 35 38 61 l42 42 -29 20 c-76 54 -114 66 -231
71 -76 3 -115 9 -118 17 -3 7 4 36 15 66 12 30 21 55 21 57 0 1 -24 2 -54 2
-74 0 -177 -34 -228 -75 -64 -52 -87 -62 -99 -44 -5 8 -9 33 -9 56 0 45 -8 73
-20 73 -5 0 -30 -17 -57 -38z m344 -81 c-3 -14 -9 -37 -12 -51 -6 -24 -3 -27
47 -43 41 -12 74 -15 144 -10 97 6 134 -4 134 -36 0 -10 -9 -26 -20 -36 -11
-10 -20 -26 -20 -35 0 -32 70 -99 135 -130 62 -29 115 -78 115 -105 0 -15 -22
-25 -52 -25 -20 0 -20 -4 -14 -62 5 -47 16 -78 46 -127 68 -114 86 -175 55
-188 -9 -3 -25 3 -36 13 -20 18 -21 18 -35 -1 -27 -36 -36 -97 -30 -190 6 -88
-3 -158 -22 -177 -6 -6 -18 4 -32 26 -12 20 -25 36 -30 36 -28 0 -78 -64 -120
-155 -64 -136 -110 -180 -110 -107 0 51 -11 57 -77 40 -40 -10 -79 -30 -124
-65 -112 -85 -155 -88 -129 -9 6 20 9 40 6 45 -4 5 -29 17 -57 26 -41 14 -60
15 -112 6 -34 -6 -71 -9 -82 -6 -11 2 -32 6 -46 9 -41 9 -44 34 -8 67 l31 29
-26 40 c-25 39 -53 60 -146 113 -63 35 -94 70 -85 96 4 13 15 21 29 21 13 0
28 6 34 13 17 20 -4 114 -37 165 -38 59 -81 152 -81 174 0 26 18 31 46 13 37
-24 49 -14 67 52 12 44 14 85 10 168 -4 91 -2 113 11 130 16 20 16 20 34 -1 9
-12 22 -30 28 -40 11 -18 14 -16 48 21 21 22 59 85 85 140 68 141 105 169 113
85 2 -27 8 -36 24 -38 30 -4 129 42 172 79 40 35 111 71 125 62 5 -3 7 -17 4
-32z m-2 -1573 c-15 -66 -13 -71 35 -90 36 -14 62 -16 137 -11 50 3 103 3 117
-1 36 -9 35 -48 -1 -74 -27 -20 -27 -20 -9 -48 33 -51 60 -75 118 -105 119
-60 165 -130 91 -137 -30 -3 -33 -6 -33 -35 1 -58 17 -105 64 -184 49 -82 66
-137 48 -155 -8 -8 -18 -6 -36 6 -14 9 -29 16 -34 16 -5 0 -16 -26 -26 -57
-15 -46 -17 -74 -11 -148 7 -90 -5 -175 -24 -175 -5 0 -22 16 -38 36 l-29 37
-43 -54 c-24 -30 -61 -92 -83 -139 -22 -47 -46 -93 -55 -102 -22 -25 -43 -22
-43 5 0 42 -12 67 -31 67 -35 0 -117 -37 -161 -73 -53 -42 -100 -67 -129 -67
-22 0 -22 0 -3 75 4 16 -3 24 -33 39 -30 14 -60 18 -140 17 -147 -1 -186 20
-128 71 14 12 25 27 25 33 0 25 -76 98 -128 123 -30 14 -73 43 -94 63 -48 45
-48 73 0 77 31 3 32 4 32 52 0 40 -11 69 -60 163 -67 128 -73 157 -36 157 13
0 29 -7 36 -15 21 -25 28 -18 48 48 16 52 19 82 15 182 -5 100 -3 123 10 133
13 11 20 8 47 -20 l31 -33 49 53 c28 29 53 65 56 80 4 15 20 53 36 84 50 94
88 113 88 43 0 -19 5 -37 10 -40 23 -14 112 18 169 61 70 52 109 74 135 74 16
0 17 -5 11 -32z"/>
<path d="M1895 2794 c-94 -49 -145 -127 -153 -234 -9 -135 58 -242 173 -275
112 -33 205 5 270 110 26 42 30 60 34 132 3 78 1 89 -28 148 -27 53 -41 70
-89 99 -48 31 -65 36 -117 36 -35 0 -73 -7 -90 -16z m172 -72 c57 -40 87 -98
91 -171 3 -60 0 -71 -30 -120 -44 -72 -74 -93 -143 -99 l-56 -5 -54 56 c-83
85 -94 161 -40 267 22 44 56 77 95 93 29 12 107 0 137 -21z"/>
<path d="M1880 1213 c-120 -63 -170 -208 -120 -350 24 -69 59 -108 125 -139
249 -118 454 224 264 440 -40 47 -75 62 -154 71 -54 6 -66 4 -115 -22z m175
-56 c86 -48 130 -185 89 -273 -25 -52 -88 -111 -134 -125 -34 -10 -43 -9 -91
17 -59 32 -93 75 -110 138 -24 89 17 195 94 240 52 32 100 33 152 3z"/>
<path d="M459 3181 c-44 -34 -39 -17 -275 -939 -40 -158 -62 -262 -58 -277 9
-36 64 -80 126 -100 82 -27 158 -63 158 -74 0 -17 -48 -37 -158 -65 -56 -14
-105 -26 -109 -26 -3 0 -3 -25 1 -56 8 -70 192 -930 209 -977 10 -28 36 -51
142 -122 72 -49 170 -116 218 -149 146 -101 122 -95 239 -63 57 15 170 46 252
67 82 22 152 43 155 46 10 10 -40 44 -63 44 -12 0 -49 -9 -82 -19 -113 -37
-281 -81 -307 -81 -31 0 -38 19 -87 255 -18 83 -34 153 -36 157 -4 6 -47 -4
-169 -40 -203 -60 -199 -60 -215 -16 -11 29 -190 858 -190 880 0 8 15 21 33
29 63 26 287 85 325 85 75 0 336 -90 353 -121 10 -20 66 -270 143 -644 61
-291 68 -315 91 -315 20 0 19 19 -4 72 -10 24 -20 75 -23 113 -3 39 -35 207
-71 375 -36 168 -67 323 -69 345 -3 38 -2 40 25 38 16 -1 45 -10 65 -20 37
-18 37 -19 61 -130 22 -107 25 -113 48 -113 16 0 23 5 20 13 -16 42 -39 167
-34 182 8 20 55 13 103 -16 l32 -19 12 31 c8 17 9 33 4 37 -5 5 -124 45 -264
91 -140 46 -338 112 -440 147 -102 35 -223 75 -270 89 -102 30 -147 56 -155
88 -8 31 258 1066 290 1127 17 32 36 37 82 19 30 -12 653 -223 691 -234 22 -6
23 -4 20 27 l-3 33 -350 117 c-396 132 -428 139 -466 109z m270 -2464 c12 -16
61 -215 61 -252 0 -37 -20 -31 -106 30 -42 31 -101 70 -130 88 -37 22 -54 38
-54 53 0 30 16 40 94 58 37 9 76 21 85 26 22 13 37 12 50 -3z"/>
<path d="M521 3041 c-33 -61 27 -113 65 -56 11 16 11 25 1 45 -16 32 -52 38
-66 11z"/>
<path d="M2815 3001 c-62 -13 -87 -135 -43 -212 l22 -39 482 0 483 0 23 33
c33 46 33 148 0 195 l-23 32 -457 -1 c-251 -1 -470 -4 -487 -8z"/>
<path d="M692 2871 c-187 -91 -291 -273 -292 -505 0 -259 136 -456 369 -531
42 -14 76 -16 152 -13 108 5 136 17 118 50 -10 19 -17 19 -99 13 -69 -5 -101
-3 -147 10 -138 40 -253 155 -304 307 -29 86 -29 249 0 331 25 72 101 187 149
227 130 108 325 121 460 30 l57 -39 3 31 c5 47 -3 57 -75 91 -62 28 -79 31
-188 35 l-120 3 -83 -40z"/>
<path d="M2785 2523 c-41 -40 -48 -144 -14 -199 l21 -34 488 0 488 0 21 43
c12 24 21 61 21 82 0 21 -9 58 -21 82 l-21 43 -483 0 c-437 0 -485 -2 -500
-17z"/>
<path d="M850 2503 c-24 -9 -61 -45 -76 -75 -64 -124 89 -265 187 -173 34 32
59 81 59 116 0 33 -30 87 -59 108 -29 21 -87 33 -111 24z"/>
<path d="M995 2169 c-10 -15 0 -48 66 -216 67 -169 92 -213 131 -227 38 -13
86 10 105 49 26 54 11 91 -78 201 -147 179 -203 228 -224 193z"/>
<path d="M1240 2101 c-13 -26 -13 -54 2 -69 19 -19 37 -14 50 13 9 19 8 29 -6
50 -20 30 -32 32 -46 6z"/>
<path d="M258 2056 c-20 -46 12 -78 58 -58 26 13 33 49 12 70 -21 21 -57 14
-70 -12z"/>
<path d="M2784 2053 c-109 -3 -134 -7 -146 -21 -19 -22 -38 -77 -38 -112 0
-27 -1 -27 -87 -33 -49 -3 -96 -8 -105 -12 -24 -10 -31 -36 -13 -54 21 -21
230 -27 793 -22 l434 4 19 31 c26 43 26 139 -1 184 l-20 32 -122 0 c-68 0
-226 2 -353 4 -126 2 -289 1 -361 -1z"/>
<path d="M2766 1610 c-113 -5 -120 -6 -138 -31 -26 -35 -27 -137 -1 -182 l19
-32 486 -3 486 -2 21 34 c28 44 29 138 2 182 l-19 31 -263 6 c-275 7 -394 7
-593 -3z"/>
<path d="M774 1566 c-3 -8 1 -48 10 -88 52 -246 177 -826 182 -840 3 -10 12
-18 21 -18 20 0 34 -75 -141 754 -39 185 -57 232 -72 192z"/>
<path d="M440 1463 c0 -10 13 -79 28 -153 21 -98 32 -135 43 -135 10 0 13 10
11 35 -5 49 -38 209 -51 243 -12 30 -31 37 -31 10z"/>
<path d="M2730 1128 c-14 -23 -20 -51 -20 -93 0 -42 6 -70 20 -92 l20 -33 509
0 509 0 21 43 c12 24 21 61 21 82 0 21 -9 58 -21 82 l-21 43 -509 0 -509 0
-20 -32z"/>
<path d="M2680 675 c-36 -38 -41 -138 -9 -194 l23 -41 502 0 503 0 23 32 c18
26 23 46 23 98 0 52 -5 72 -23 98 l-23 32 -498 0 -498 0 -23 -25z"/>
</g>
</svg>
