<?xml version="1.0" standalone="no"?>
<!DOCTYPE svg PUBLIC "-//W3C//DTD SVG 20010904//EN"
 "http://www.w3.org/TR/2001/REC-SVG-20010904/DTD/svg10.dtd">
<svg version="1.0" xmlns="http://www.w3.org/2000/svg"
 width="394.000000pt" height="357.000000pt" viewBox="0 0 394.000000 357.000000"
 preserveAspectRatio="xMidYMid meet">

<g transform="translate(0.000000,357.000000) scale(0.100000,-0.100000)"
fill="#000000" stroke="none">
<path d="M580 3470 c-249 -3 -371 -9 -385 -17 -11 -6 -31 -23 -45 -38 -25 -26
-25 -29 -28 -230 -3 -176 -1 -208 13 -239 23 -48 67 -78 134 -91 l55 -11 13
-70 c6 -38 53 -303 103 -589 50 -286 97 -554 105 -595 8 -41 30 -167 50 -280
78 -443 126 -701 141 -752 43 -146 169 -295 304 -361 84 -41 148 -53 342 -63
l128 -7 -30 84 c-39 114 -50 189 -50 359 l0 145 -136 130 -137 130 170 162
170 162 78 -70 c49 -43 82 -66 89 -61 6 5 33 26 59 47 l48 38 -75 76 -76 76
133 130 c72 72 146 143 164 159 l32 29 83 -71 c46 -39 126 -112 178 -163 l94
-93 107 -1 106 0 167 162 c92 90 171 163 176 163 15 0 127 -97 156 -135 26
-34 27 -38 16 -86 -22 -95 -22 -96 59 -104 39 -4 113 -4 164 0 l93 7 11 66
c74 439 239 1360 245 1371 4 6 19 11 34 11 37 1 102 32 132 64 25 27 25 30 28
229 4 229 -2 264 -51 299 -32 23 -36 23 -427 29 -459 8 -2207 7 -2740 -1z
m237 -659 c26 -21 72 -64 102 -95 63 -67 70 -49 -83 -189 -74 -68 -101 -86
-107 -76 -8 16 -69 346 -69 378 0 19 6 21 54 21 48 0 60 -5 103 -39z m343 30
c0 -13 -59 -61 -74 -61 -13 0 -66 51 -66 63 0 4 32 7 70 7 39 0 70 -4 70 -9z
m598 -57 c40 -36 72 -72 72 -79 0 -8 -73 -82 -161 -164 -125 -116 -165 -148
-178 -142 -36 20 -271 245 -271 260 0 8 39 55 87 103 l88 88 145 0 146 0 72
-66z m220 54 c-3 -7 -13 -13 -23 -13 -10 0 -20 6 -22 13 -3 7 5 12 22 12 17 0
25 -5 23 -12z m598 -54 c87 -77 118 -118 107 -137 -13 -23 -264 -257 -274
-257 -15 0 -329 300 -329 314 0 7 31 43 69 79 l69 67 142 0 143 0 73 -66z
m314 57 c0 -13 -59 -61 -74 -61 -13 0 -66 51 -66 63 0 4 32 7 70 7 39 0 70 -4
70 -9z m374 1 c7 -12 -65 -397 -78 -409 -7 -7 -143 115 -202 181 l-45 49 93
94 93 93 67 0 c37 0 69 -3 72 -8z m-1125 -419 l154 -148 -162 -157 c-90 -87
-166 -158 -170 -158 -9 0 -177 146 -271 237 l-75 72 40 41 c22 23 97 96 167
161 106 99 131 118 145 110 10 -5 87 -76 172 -158z m-931 18 c59 -54 122 -115
141 -135 l35 -36 -25 -26 c-51 -55 -301 -279 -314 -282 -16 -4 -244 214 -265
253 -13 24 -11 28 21 61 55 59 282 264 291 264 5 0 57 -45 116 -99z m1759 -30
c76 -70 149 -140 163 -155 l24 -27 -84 -85 c-131 -132 -197 -187 -214 -177
-37 21 -316 287 -316 301 0 20 255 272 275 272 7 0 75 -58 152 -129z m-1297
-409 c131 -126 162 -161 154 -174 -12 -21 -316 -308 -327 -308 -4 0 -81 72
-170 161 l-162 160 164 160 c91 87 167 159 171 159 3 0 79 -71 170 -158z m915
-7 l160 -155 -158 -155 c-87 -85 -164 -155 -172 -155 -15 0 -168 135 -270 239
l-69 71 74 76 c93 95 251 234 265 234 5 0 82 -70 170 -155z m521 -72 c-2 -16
-10 -58 -16 -95 -7 -38 -16 -68 -20 -68 -4 0 -27 18 -51 40 l-44 40 60 55 c33
30 64 55 68 55 5 0 6 -12 3 -27z m-2221 -39 l50 -45 -39 -35 c-22 -19 -43 -31
-47 -27 -7 8 -29 113 -29 140 0 21 12 15 65 -33z m328 -315 c86 -83 157 -157
157 -164 0 -13 -286 -291 -317 -309 -20 -11 -89 56 -104 103 -7 19 -24 107
-39 196 -25 146 -26 162 -12 184 25 41 127 141 143 141 8 0 86 -68 172 -151z
m6 -867 c88 -84 151 -151 151 -162 0 -26 -78 -90 -109 -90 -71 1 -155 71 -196
164 -20 44 -55 177 -55 205 0 18 31 41 45 34 7 -5 81 -72 164 -151z"/>
<path d="M1999 1260 c-108 -7 -125 -15 -196 -88 -54 -57 -88 -113 -121 -201
-22 -58 -25 -86 -30 -241 -5 -196 4 -252 58 -365 35 -73 111 -167 158 -196 52
-33 204 -42 588 -34 l342 7 100 207 c55 113 104 218 107 233 8 30 1 41 -96
174 -37 50 -72 101 -78 113 -14 24 -18 15 123 235 42 66 75 127 74 135 -2 12
-21 18 -73 22 -92 9 -833 8 -956 -1z m784 -117 c27 -4 36 -10 33 -20 -3 -7
-38 -64 -77 -125 -84 -130 -90 -96 50 -284 l92 -123 -85 -164 -86 -164 -140
-7 c-137 -6 -504 0 -588 10 -80 10 -149 99 -188 245 -21 79 -24 268 -5 354 26
116 88 226 146 258 11 6 63 14 115 17 125 9 685 12 733 3z"/>
</g>
</svg>
