<?xml version="1.0" standalone="no"?>
<!DOCTYPE svg PUBLIC "-//W3C//DTD SVG 20010904//EN"
 "http://www.w3.org/TR/2001/REC-SVG-20010904/DTD/svg10.dtd">
<svg version="1.0" xmlns="http://www.w3.org/2000/svg"
 width="394.000000pt" height="357.000000pt" viewBox="0 0 394.000000 357.000000"
 preserveAspectRatio="xMidYMid meet">

<g transform="translate(0.000000,357.000000) scale(0.100000,-0.100000)"
fill="#000000" stroke="none">
<path d="M660 3421 c-66 -5 -93 -12 -121 -31 -43 -28 -79 -81 -79 -114 l0 -24
793 -7 c435 -4 1112 -3 1502 1 l710 9 -2 28 c-3 39 -46 93 -96 120 l-42 22
-1290 1 c-710 1 -1328 -2 -1375 -5z"/>
<path d="M330 3146 c0 -63 0 -64 31 -70 40 -8 2885 -5 3084 3 l150 6 3 63 3
62 -1636 0 -1635 0 0 -64z"/>
<path d="M461 3033 l-53 -4 4 -1162 c3 -639 8 -1169 12 -1179 4 -9 17 -19 29
-23 33 -10 2166 -19 2620 -10 300 6 401 10 414 20 17 13 18 74 21 1183 l2
1169 -151 6 c-155 7 -2800 6 -2898 0z m806 -256 c4 -5 8 -422 8 -926 0 -769
-2 -921 -14 -935 -12 -14 -37 -16 -215 -14 l-201 3 -7 45 c-8 57 -10 1707 -2
1777 6 46 10 52 33 56 46 8 389 2 398 -6z m907 -8 l26 -20 0 -925 0 -924 -237
0 -236 0 6 913 c4 501 8 920 10 931 8 41 32 46 223 46 168 0 183 -1 208 -21z
m885 15 l31 -7 -2 -936 -3 -936 -210 0 -210 0 -2 935 -3 935 23 7 c29 8 335
10 376 2z"/>
<path d="M275 2583 c-163 -6 -155 15 -155 -410 0 -273 2 -332 15 -350 19 -26
85 -43 174 -43 l71 0 0 45 0 45 -75 0 -75 0 2 313 3 312 73 3 72 3 0 44 c0 30
-4 44 -12 43 -7 -1 -49 -3 -93 -5z"/>
<path d="M3550 2545 l0 -45 70 0 70 0 0 -315 0 -315 -70 0 -70 0 0 -46 0 -46
93 4 c95 5 141 19 153 47 3 9 9 161 12 339 6 427 15 405 -165 416 l-93 6 0
-45z"/>
<path d="M793 613 c-31 -4 -33 -7 -33 -44 l0 -39 90 0 90 0 0 -44 c0 -26 -6
-48 -15 -56 -35 -29 -57 -82 -57 -136 0 -106 79 -174 204 -174 125 1 210 68
210 167 0 72 -9 96 -53 134 -28 24 -39 41 -39 61 0 37 25 48 109 48 l71 0 0
45 0 45 -272 -2 c-150 0 -288 -3 -305 -5z m354 -279 c18 -25 16 -47 -8 -78
-16 -20 -29 -26 -58 -26 -41 0 -91 31 -91 55 0 29 24 65 49 73 33 11 92 -2
108 -24z"/>
<path d="M2493 613 c-31 -4 -33 -7 -33 -44 l0 -39 90 0 90 0 0 -39 c0 -29 -7
-46 -30 -69 -56 -59 -73 -132 -45 -190 51 -102 203 -144 313 -88 71 37 102 84
102 157 0 50 -18 85 -64 127 -28 25 -36 40 -36 67 l0 35 95 0 95 0 0 45 0 45
-272 -2 c-150 0 -288 -3 -305 -5z m325 -263 c30 -18 37 -34 32 -70 -7 -54
-101 -70 -145 -25 -31 30 -32 55 -2 82 41 38 69 41 115 13z"/>
</g>
</svg>
