<?xml version="1.0" standalone="no"?>
<!DOCTYPE svg PUBLIC "-//W3C//DTD SVG 20010904//EN"
 "http://www.w3.org/TR/2001/REC-SVG-20010904/DTD/svg10.dtd">
<svg version="1.0" xmlns="http://www.w3.org/2000/svg"
 width="394.000000pt" height="357.000000pt" viewBox="0 0 394.000000 357.000000"
 preserveAspectRatio="xMidYMid meet">

<g transform="translate(0.000000,357.000000) scale(0.100000,-0.100000)"
fill="#000000" stroke="none">
<path d="M1055 3240 l-230 -230 -110 35 c-111 35 -140 40 -170 29 -17 -7 -190
-232 -208 -271 -5 -13 -7 -26 -3 -31 4 -4 347 -8 762 -10 l754 -3 0 28 c0 16
-5 34 -11 40 -6 6 -34 69 -63 139 l-53 129 -50 -3 c-60 -4 -46 -18 -225 205
-76 95 -144 173 -151 173 -7 0 -116 -104 -242 -230z"/>
<path d="M2239 2934 c-11 -13 -14 -161 -17 -786 l-4 -770 -577 4 -576 4 -40
23 c-35 21 -49 23 -122 18 -49 -3 -94 -12 -115 -22 -28 -15 -69 -19 -250 -23
-179 -4 -220 -7 -230 -20 -9 -11 -15 -81 -19 -241 -4 -124 -9 -235 -11 -246
-3 -14 -15 -22 -39 -25 l-34 -5 -3 -120 c-4 -147 5 -257 23 -282 12 -16 33
-19 176 -23 l162 -5 42 -80 c49 -93 116 -172 161 -191 77 -32 257 -25 306 12
56 42 156 186 157 225 1 9 9 21 19 25 19 10 1395 18 1457 9 38 -5 42 -9 79
-81 50 -97 125 -181 174 -193 70 -18 137 -22 204 -12 60 8 117 34 118 53 0 4
16 24 35 45 19 21 52 70 73 110 23 45 44 74 57 77 11 3 91 8 177 12 86 4 162
10 169 14 8 6 12 62 13 196 l1 189 -46 8 c-44 8 -47 11 -53 45 -3 21 -6 75 -6
122 0 172 -72 655 -101 685 -5 5 -9 19 -9 30 0 38 -88 292 -151 433 -118 268
-274 509 -483 744 l-51 58 -326 0 c-289 0 -328 -2 -340 -16z m653 -391 c63
-56 229 -344 282 -488 10 -27 23 -55 28 -61 16 -21 -20 -24 -283 -24 l-259 0
0 283 c0 155 4 287 8 294 17 27 192 25 224 -4z m-1903 -1479 c39 -33 88 -133
102 -209 29 -157 -33 -339 -132 -391 -40 -20 -66 -18 -115 11 -53 31 -100 120
-115 216 -13 81 -13 71 0 157 14 89 46 156 100 205 53 47 112 52 160 11z
m2191 -32 c40 -41 50 -61 68 -129 26 -94 27 -146 7 -243 -18 -88 -44 -138 -90
-178 -84 -75 -163 -45 -227 86 -32 65 -33 70 -33 198 0 130 0 132 35 200 43
83 83 114 148 114 41 0 50 -5 92 -48z"/>
<path d="M114 2533 c6 -94 114 -852 142 -989 5 -26 12 -33 37 -38 17 -3 330
-9 696 -12 608 -5 905 1 1104 22 l57 6 0 557 0 558 -472 6 c-260 4 -720 7
-1022 7 l-548 0 6 -117z m365 -72 c11 -7 11 -27 2 -117 -15 -137 -70 -532 -78
-559 -6 -19 -7 -18 -14 5 -12 37 -89 578 -89 627 0 31 4 43 18 46 31 8 147 7
161 -2z m458 -8 c6 -14 -45 -450 -79 -670 l-10 -73 -104 0 c-56 0 -105 3 -107
8 -5 7 26 260 68 556 14 98 25 183 25 187 0 5 45 9 100 9 85 0 102 -3 107 -17z
m478 -5 c5 -5 -58 -568 -82 -720 l-6 -38 -104 0 c-86 0 -105 3 -110 16 -3 9
10 134 30 278 20 143 42 305 49 360 10 83 16 100 33 107 23 10 180 8 190 -3z
m491 0 c6 -6 -67 -646 -83 -731 l-6 -28 -106 3 -106 3 3 50 c2 46 57 461 83
632 10 60 15 73 33 77 32 7 173 2 182 -6z"/>
</g>
</svg>
