<?xml version="1.0" standalone="no"?>
<!DOCTYPE svg PUBLIC "-//W3C//DTD SVG 20010904//EN"
 "http://www.w3.org/TR/2001/REC-SVG-20010904/DTD/svg10.dtd">
<svg version="1.0" xmlns="http://www.w3.org/2000/svg"
 width="394.000000pt" height="357.000000pt" viewBox="0 0 394.000000 357.000000"
 preserveAspectRatio="xMidYMid meet">

<g transform="translate(0.000000,357.000000) scale(0.100000,-0.100000)"
fill="#000000" stroke="none">
<path d="M959 3460 c-228 -41 -423 -141 -575 -294 -146 -148 -232 -314 -261
-503 -27 -184 -2 -335 90 -523 l41 -85 0 -235 c1 -225 2 -239 29 -339 41 -152
64 -214 120 -326 219 -441 650 -758 1186 -873 117 -25 144 -27 391 -28 l265
-2 87 -36 c141 -59 226 -78 385 -83 161 -6 267 6 388 44 331 104 583 359 672
678 21 76 28 251 13 342 -13 86 -64 228 -111 309 l-30 52 12 94 c22 178 -6
415 -72 618 -59 177 -188 384 -337 542 -234 245 -512 405 -852 487 -176 43
-302 55 -526 48 l-195 -5 -74 34 c-141 65 -239 86 -430 89 -93 2 -191 0 -216
-5z m1307 -678 c307 -78 500 -242 512 -437 4 -55 1 -64 -30 -109 -44 -65 -101
-96 -179 -96 -92 0 -131 21 -192 104 -29 39 -61 84 -71 99 -26 42 -95 106
-136 127 -93 48 -347 54 -465 12 -190 -69 -234 -230 -88 -322 68 -43 138 -67
297 -102 531 -114 705 -178 834 -306 98 -97 140 -220 129 -375 -16 -225 -156
-399 -400 -499 -134 -55 -262 -79 -462 -85 -204 -6 -348 9 -489 54 -235 73
-419 236 -476 421 -28 90 -26 129 10 186 52 81 159 115 264 84 56 -17 112 -77
165 -179 104 -195 216 -259 456 -259 171 0 281 31 373 107 106 87 109 239 6
320 -77 60 -145 83 -405 138 -518 109 -713 208 -806 412 -38 82 -44 222 -14
321 61 201 278 346 596 397 135 21 463 14 571 -13z"/>
</g>
</svg>
