<?xml version="1.0" standalone="no"?>
<!DOCTYPE svg PUBLIC "-//W3C//DTD SVG 20010904//EN"
 "http://www.w3.org/TR/2001/REC-SVG-20010904/DTD/svg10.dtd">
<svg version="1.0" xmlns="http://www.w3.org/2000/svg"
 width="394.000000pt" height="357.000000pt" viewBox="0 0 394.000000 357.000000"
 preserveAspectRatio="xMidYMid meet">

<g transform="translate(0.000000,357.000000) scale(0.100000,-0.100000)"
fill="#000000" stroke="none">
<path d="M1765 3469 c-243 -23 -479 -92 -705 -206 -192 -96 -308 -181 -466
-338 -284 -283 -439 -608 -475 -995 -10 -102 -10 -158 0 -260 36 -387 191
-712 475 -995 158 -157 274 -242 466 -338 569 -287 1231 -287 1800 0 192 96
308 181 466 338 284 283 439 608 475 995 10 102 10 158 0 260 -36 387 -191
712 -475 995 -158 157 -274 242 -466 338 -342 172 -713 242 -1095 206z m541
-223 c522 -110 931 -414 1144 -851 310 -634 92 -1371 -528 -1788 -178 -120
-382 -203 -621 -254 -114 -25 -146 -27 -341 -27 -195 0 -227 2 -341 27 -166
35 -290 77 -424 142 -326 158 -575 402 -725 710 -310 634 -92 1371 528 1788
169 114 378 202 588 247 161 34 219 39 414 35 149 -3 208 -9 306 -29z"/>
<path d="M1465 2885 c-102 -55 -130 -83 -118 -120 9 -31 332 -538 355 -557 30
-27 60 -22 151 23 112 56 147 84 147 116 0 31 -329 554 -363 578 -35 24 -66
17 -172 -40z"/>
<path d="M1225 2695 c-89 -50 -150 -108 -182 -172 -24 -51 -27 -67 -27 -157 2
-189 59 -387 188 -651 219 -447 576 -855 879 -1005 137 -68 259 -65 407 10 33
17 60 32 60 35 0 10 -342 540 -348 540 -4 -1 -27 -7 -52 -14 -240 -70 -613
342 -614 679 -1 94 16 142 65 190 l40 38 -172 271 c-94 149 -174 271 -178 271
-3 0 -33 -16 -66 -35z"/>
<path d="M2380 1469 c-113 -60 -130 -74 -130 -109 0 -27 326 -552 359 -577 30
-23 72 -13 177 43 107 57 132 83 117 121 -13 32 -344 548 -361 561 -28 21 -65
13 -162 -39z"/>
</g>
</svg>
