<?xml version="1.0" standalone="no"?>
<!DOCTYPE svg PUBLIC "-//W3C//DTD SVG 20010904//EN"
 "http://www.w3.org/TR/2001/REC-SVG-20010904/DTD/svg10.dtd">
<svg version="1.0" xmlns="http://www.w3.org/2000/svg"
 width="394.000000pt" height="357.000000pt" viewBox="0 0 394.000000 357.000000"
 preserveAspectRatio="xMidYMid meet">

<g transform="translate(0.000000,357.000000) scale(0.100000,-0.100000)"
fill="#000000" stroke="none">
<path d="M1875 3451 c-50 -22 -91 -69 -107 -123 -10 -34 -9 -48 5 -86 9 -26
15 -47 14 -48 -1 -1 -155 -105 -342 -231 -187 -127 -448 -303 -580 -393 -444
-301 -404 -276 -428 -260 -92 59 -147 64 -228 22 -85 -43 -120 -133 -85 -215
19 -46 79 -95 131 -108 25 -6 45 -12 45 -13 0 -11 134 -393 140 -400 5 -4 18
9 29 30 12 22 26 46 32 54 8 11 -4 56 -45 179 l-56 164 38 33 37 33 206 1 206
0 31 50 31 50 -219 0 c-170 0 -220 3 -219 13 0 6 62 53 137 102 75 50 280 187
454 305 583 395 753 507 761 503 4 -2 7 -95 7 -205 l0 -202 28 26 c15 14 39
33 55 43 l27 17 0 159 c0 135 2 159 15 159 9 0 88 -49 177 -110 153 -105 164
-110 212 -110 29 0 76 -6 106 -14 30 -8 56 -13 57 -12 1 1 -44 33 -100 70 -56
38 -157 107 -225 153 l-122 84 22 32 c36 50 32 134 -8 184 -60 76 -157 102
-239 64z"/>
<path d="M2198 2764 c-135 -32 -275 -138 -337 -253 -32 -60 -61 -163 -61 -218
0 -18 -2 -33 -5 -33 -3 0 -25 10 -48 21 -289 148 -666 8 -766 -284 -23 -65
-31 -148 -16 -153 6 -2 20 19 33 46 35 74 121 156 211 199 75 35 78 36 201 36
124 0 126 0 203 -37 135 -64 221 -172 248 -309 10 -50 15 -58 55 -83 56 -35
126 -114 154 -171 51 -106 50 -253 -4 -357 l-25 -49 37 6 c65 11 194 79 253
133 31 29 61 52 67 52 5 0 29 -11 53 -24 163 -91 400 -84 564 15 122 73 217
213 238 351 31 197 -86 411 -273 500 -41 20 -83 39 -93 42 -15 5 -16 13 -11
58 13 118 -45 267 -146 369 -71 72 -173 128 -268 148 -71 15 -194 13 -264 -5z"/>
<path d="M2870 2644 c0 -3 11 -20 25 -38 13 -17 36 -57 50 -89 26 -55 32 -60
211 -182 101 -70 182 -130 179 -136 -4 -5 -48 -9 -100 -9 l-94 0 53 -50 52
-49 105 -3 c97 -3 104 -4 107 -24 2 -12 -17 -77 -42 -145 -41 -111 -46 -132
-46 -209 0 -140 -45 -266 -130 -363 -34 -38 -73 -127 -116 -262 -7 -22 -36
-105 -64 -185 -28 -80 -69 -195 -90 -257 -53 -156 -52 -155 -82 -107 -13 21
-80 141 -149 266 -193 354 -166 316 -245 344 -38 13 -72 23 -75 21 -3 -1 15
-40 41 -87 197 -360 360 -660 360 -665 0 -3 -189 -5 -420 -5 l-420 0 0 295 0
295 -30 0 c-16 0 -41 -5 -55 -12 l-25 -11 0 -284 0 -283 -393 0 c-369 0 -395
1 -410 18 -10 10 -17 23 -17 28 0 9 143 279 197 373 21 36 22 43 9 38 -10 -4
-41 -7 -70 -7 l-52 0 -94 -175 c-52 -96 -99 -174 -104 -172 -10 3 -27 48 -102
267 -71 204 -85 240 -94 240 -7 0 -77 30 -112 48 -8 3 13 -64 31 -103 6 -11
28 -76 51 -145 23 -69 60 -176 82 -239 l41 -114 -25 -21 c-84 -69 -92 -194
-16 -262 97 -89 252 -65 307 48 11 24 21 52 21 61 0 16 59 17 834 17 l833 0 6
-36 c18 -112 167 -180 275 -125 138 70 134 258 -6 318 -30 12 -33 17 -27 40 6
24 77 232 180 523 18 52 54 156 80 230 26 74 60 171 76 215 16 44 64 181 107
304 l78 224 55 2 c77 2 136 38 172 103 34 62 34 87 1 146 -65 116 -215 140
-311 50 -19 -19 -38 -34 -40 -34 -2 0 -86 56 -186 124 -322 218 -377 255 -377
250z"/>
<path d="M1294 2002 c-66 -23 -132 -72 -166 -124 -30 -43 -58 -125 -58 -166 0
-13 -3 -22 -7 -20 -78 40 -91 43 -193 43 -119 0 -157 -14 -236 -87 -96 -88
-128 -234 -74 -341 54 -107 130 -163 255 -188 57 -11 77 -20 108 -50 21 -20
62 -50 90 -65 47 -26 61 -29 152 -29 87 0 107 3 155 26 30 15 70 41 89 58 41
37 40 36 83 12 18 -11 59 -25 92 -31 253 -51 472 184 386 414 -29 76 -75 126
-154 167 l-64 33 -4 65 c-9 121 -77 219 -187 269 -75 34 -193 41 -267 14z"/>
</g>
</svg>
