<?xml version="1.0" standalone="no"?>
<!DOCTYPE svg PUBLIC "-//W3C//DTD SVG 20010904//EN"
 "http://www.w3.org/TR/2001/REC-SVG-20010904/DTD/svg10.dtd">
<svg version="1.0" xmlns="http://www.w3.org/2000/svg"
 width="394.000000pt" height="357.000000pt" viewBox="0 0 394.000000 357.000000"
 preserveAspectRatio="xMidYMid meet">

<g transform="translate(0.000000,357.000000) scale(0.100000,-0.100000)"
fill="#000000" stroke="none">
<path d="M1850 3474 c-310 -28 -515 -82 -760 -200 -283 -137 -511 -326 -685
-569 -151 -211 -235 -428 -284 -736 -31 -192 7 -486 94 -709 199 -516 651
-907 1229 -1060 172 -46 300 -62 501 -62 213 -1 334 12 510 57 647 163 1152
639 1299 1222 70 278 71 472 5 753 -65 279 -216 539 -442 762 -338 334 -788
521 -1307 541 -63 2 -135 3 -160 1z m445 -192 c194 -40 315 -81 478 -163 307
-154 558 -401 704 -694 205 -407 197 -871 -20 -1285 -115 -218 -346 -457 -572
-592 -315 -188 -694 -278 -1048 -249 -376 30 -696 151 -972 367 -465 363 -672
953 -525 1494 152 559 647 997 1260 1115 171 33 170 33 395 30 154 -2 223 -7
300 -23z"/>
<path d="M1867 2885 c-427 -61 -788 -357 -904 -741 -25 -81 -27 -104 -28 -259
0 -149 3 -180 23 -250 26 -90 71 -190 113 -252 16 -23 29 -45 29 -50 0 -4 -38
-84 -85 -176 -94 -186 -102 -221 -60 -262 35 -36 67 -33 332 33 l232 58 51
-23 c252 -111 590 -124 862 -33 329 110 584 354 689 659 102 295 37 634 -171
896 -151 190 -398 335 -661 389 -111 23 -305 28 -422 11z m433 -200 c456 -122
735 -522 655 -942 -30 -157 -94 -280 -209 -401 -123 -129 -268 -215 -446 -264
-74 -20 -107 -23 -260 -22 -161 0 -182 2 -263 27 -48 15 -117 41 -154 57 -36
17 -76 30 -89 30 -13 0 -89 -16 -170 -36 -80 -20 -148 -34 -150 -31 -3 3 20
55 50 116 31 61 56 117 56 124 0 8 -22 47 -49 88 -61 93 -83 137 -109 219
-156 483 204 989 753 1061 106 14 280 2 385 -26z"/>
<path d="M1575 2287 c-78 -81 -97 -191 -49 -294 62 -133 238 -330 373 -418
208 -134 441 -192 562 -138 125 56 186 167 124 229 -13 13 -62 42 -107 64
-123 60 -173 53 -233 -32 -44 -61 -66 -62 -175 -6 -110 56 -280 216 -280 262
0 6 18 35 40 65 51 67 52 100 5 196 -47 98 -80 125 -153 125 -54 0 -57 -1
-107 -53z"/>
</g>
</svg>
