<?xml version="1.0" standalone="no"?>
<!DOCTYPE svg PUBLIC "-//W3C//DTD SVG 20010904//EN"
 "http://www.w3.org/TR/2001/REC-SVG-20010904/DTD/svg10.dtd">
<svg version="1.0" xmlns="http://www.w3.org/2000/svg"
 width="394.000000pt" height="357.000000pt" viewBox="0 0 394.000000 357.000000"
 preserveAspectRatio="xMidYMid meet">

<g transform="translate(0.000000,357.000000) scale(0.100000,-0.100000)"
fill="#000000" stroke="none">
<path d="M1765 3469 c-243 -23 -479 -92 -705 -206 -192 -96 -308 -181 -466
-338 -285 -284 -439 -608 -476 -997 -9 -99 -9 -157 0 -256 37 -389 191 -713
476 -997 158 -157 274 -242 466 -338 569 -287 1231 -287 1800 0 192 96 308
181 466 338 285 284 439 608 476 997 9 99 9 157 0 256 -37 389 -191 713 -476
997 -158 157 -274 242 -466 338 -342 172 -713 242 -1095 206z m425 -204 c561
-75 1030 -400 1260 -870 364 -744 -6 -1610 -832 -1949 -190 -78 -438 -126
-658 -126 -646 0 -1227 345 -1490 885 -364 744 6 1610 832 1949 107 44 292 93
418 111 127 17 341 18 470 0z"/>
<path d="M783 2450 c-12 -5 -27 -18 -33 -30 -8 -14 -10 -166 -8 -513 l3 -492
27 -57 c57 -122 172 -208 305 -228 44 -7 306 -10 736 -8 l669 3 19 24 c19 23
20 41 17 520 l-3 496 -31 65 c-54 115 -159 197 -283 220 -67 12 -1387 13
-1418 0z"/>
<path d="M2867 2244 l-237 -137 2 -365 3 -366 234 -135 c249 -143 278 -154
313 -112 17 22 18 55 18 615 l0 593 -23 21 c-13 12 -34 22 -48 22 -13 0 -131
-61 -262 -136z"/>
</g>
</svg>
